<svg xmlns="http://www.w3.org/2000/svg" width="375" viewBox="0 0 375 375" height="375" version="1.0"><path fill="#FFF" d="M-37.5 -37.5H412.5V412.5H-37.5z"/><path fill="#FFF" d="M-37.5 -37.5H412.5V412.5H-37.5z"/><path fill="#FFF" d="M-37.5 -37.5H412.5V412.5H-37.5z"/><path fill="#9D7106" d="M 223.683594 233.9375 C 218.144531 224.777344 206.226562 221.84375 197.070312 227.378906 C 187.910156 232.914062 184.972656 244.828125 190.511719 253.992188 C 194.152344 260.015625 200.554688 263.347656 207.113281 263.347656 L 271.199219 355.308594 C 272.835938 354.492188 274.460938 353.652344 276.070312 352.789062 L 224.25 252.988281 C 227.300781 247.175781 227.324219 239.960938 223.683594 233.9375"/><path fill="#9D7106" d="M 137.769531 299.464844 C 154.433594 248.6875 126.996094 193.097656 114.636719 172.222656 C 114.152344 173.070312 113.675781 173.921875 113.210938 174.789062 L 111.847656 177.332031 L 113.375 179.777344 C 114.355469 181.347656 115.433594 183.144531 116.574219 185.132812 L 112.273438 187.734375 L 85.683594 143.757812 L 0.09375 181.820312 C 0.0390625 183.707031 0.00390625 185.597656 0.00390625 187.5 C 0.00390625 291.050781 83.949219 374.996094 187.5 374.996094 C 217.195312 374.996094 245.273438 368.082031 270.226562 355.792969 C 200.96875 295.753906 137.769531 299.464844 137.769531 299.464844"/><path fill="#D19D1E" d="M 239.175781 96.671875 C 235.835938 91.15625 233.980469 85.6875 233.949219 82.0625 C 231.550781 82.972656 229.554688 83.042969 228.96875 82.078125 C 228.277344 80.933594 229.792969 78.707031 232.453125 76.738281 L 218.617188 53.855469 L 221.476562 51.460938 L 235.605469 74.832031 C 238.585938 73.394531 241.257812 73.085938 241.949219 74.230469 C 242.53125 75.199219 241.542969 76.929688 239.625 78.632812 C 242.820312 80.34375 246.796875 84.53125 250.132812 90.046875 C 255.210938 98.449219 257.472656 114.570312 257.472656 114.570312 C 257.472656 114.570312 244.25 105.074219 239.175781 96.671875 Z M 187.5 0.00390625 C 86.582031 0.00390625 4.296875 79.738281 0.179688 179.648438 L 111.140625 75.828125 L 249.015625 24.074219 L 173.308594 87.453125 L 201.371094 133.867188 L 197.070312 136.46875 C 195.835938 134.535156 194.75 132.746094 193.8125 131.148438 L 192.359375 128.660156 L 189.472656 128.6875 C 188.492188 128.691406 187.511719 128.71875 186.539062 128.757812 C 199.28125 149.398438 235.753906 199.527344 288.460938 208.367188 C 288.460938 208.367188 255.679688 262.8125 276.90625 352.347656 C 335.335938 320.589844 374.996094 258.671875 374.996094 187.5 C 374.996094 83.949219 291.050781 0.00390625 187.5 0.00390625"/></svg>